<svg width="76" height="21" viewBox="0 0 76 21" fill="none" xmlns="http://www.w3.org/2000/svg">
<path d="M4.20318 2.30013C7.54064 8.85114 11.5947 15.2058 17.3104 18.5039C17.995 18.8982 20.2284 19.7933 17.5808 18.821C14.9175 17.8445 17.0432 18.5832 17.7336 18.7171C18.6361 18.8935 19.5654 18.979 20.5104 18.9638C23.1533 18.9255 25.8832 18.0944 28.5272 16.6454C34.066 13.6087 38.8572 8.25107 44.1004 4.26838C49.7232 -0.00516005 54.7586 -0.982734 60.07 0.946661C63.2636 2.10745 66.2027 3.3958 68.6707 6.07123C71.4895 9.12833 73.5579 13.1541 75.2915 17.4034C74.778 16.1413 71.6175 17.1488 71.0857 15.8442C69.5668 12.1188 67.7955 8.58235 65.4797 5.6985C64.2469 4.16128 62.8657 2.81517 61.3111 1.79351C60.9993 1.58981 60.6838 1.39235 60.3583 1.21647C61.7338 1.96303 60.8082 1.38925 60.3142 1.4113C59.4826 1.44752 58.6825 1.31102 57.8367 1.39764C52.1709 1.97568 46.9449 6.81726 41.9757 11.2011C36.7918 15.7728 31.3612 20.0679 25.5263 20.4863C21.5614 20.7709 17.7835 19.221 14.3799 17.614C7.99899 14.601 3.56951 7.75175 0 0.742926C0.635256 1.99349 3.54798 1.01176 4.20318 2.30013Z" fill="#FFD600"/>
</svg>
