<svg width="77" height="24" viewBox="0 0 77 24" fill="none" xmlns="http://www.w3.org/2000/svg">
<path d="M4.34232 7.55514C8.33288 13.7297 13.0165 19.6355 19.0393 22.3319C19.7607 22.6538 22.0739 23.3158 19.3402 22.6191C16.5907 21.9209 18.7815 22.438 19.4813 22.4999C20.3975 22.5834 21.3304 22.5729 22.2691 22.4616C24.8936 22.1534 27.5244 21.0467 30.0061 19.3347C35.2047 15.7473 39.4226 9.9271 44.2306 5.42833C49.3862 0.601961 54.2944 -0.886945 59.7755 0.489619C63.0715 1.31755 66.127 2.2972 68.8555 4.70645C71.973 7.45905 74.4426 11.2517 76.6019 15.3011C75.962 14.0983 72.9211 15.4239 72.2585 14.1807C70.3664 10.6306 68.2423 7.29421 65.6435 4.66236C64.2596 3.25955 62.7476 2.06149 61.097 1.2052C60.7652 1.03405 60.4312 0.870241 60.0895 0.728489C61.5343 1.33015 60.5551 0.853977 60.0658 0.926952C59.2421 1.0477 58.4326 0.99415 57.5999 1.16635C52.0233 2.32189 47.3203 7.67274 42.8257 12.5422C38.1369 17.6211 33.1745 22.449 27.4136 23.4628C23.4987 24.1516 19.5822 22.9966 16.0316 21.7465C9.37555 19.4029 4.26882 13.0425 0 6.43635C0.761783 7.61551 3.55796 6.34028 4.34232 7.55514Z" fill="#E06020"/>
</svg>
