<svg width="64" height="57" viewBox="0 0 64 57" fill="none" xmlns="http://www.w3.org/2000/svg">
<path d="M3.04991 4.19376C1.58095 9.61444 0.704723 15.3118 1.77521 20.89C1.90279 21.5504 2.34535 22.4036 2.29127 23.052C2.08862 22.412 1.88389 21.7714 1.68071 21.1315C1.87181 21.6234 2.07916 22.1085 2.30124 22.5857C2.68817 23.421 3.11973 24.2353 3.58594 25.0286C4.8071 27.1071 6.25561 29.1662 7.9288 30.9055C10.9639 34.0582 15.2489 36.04 19.5172 36.8265C22.7723 37.4266 27.5088 37.6077 29.7328 34.6015C30.8179 33.1362 31.1188 31.1638 31.019 29.3825C30.9907 28.869 30.8038 28.3057 30.8122 27.8017C30.7691 30.2067 32.0397 30.6624 31.0883 29.1179C30.4982 28.1624 29.6934 27.3455 28.6586 26.8808C24.9311 25.2071 19.9194 27.8662 17.9385 31.1087C16.7709 33.0207 16.4591 35.3402 16.6617 37.5405C16.6974 37.9227 16.7499 38.3071 16.8134 38.6872C16.8491 38.8783 16.8854 39.0698 16.9216 39.2609C17.3484 40.9294 17.2455 40.6942 16.6134 38.558C17.4235 39.8831 17.9212 41.4161 18.7497 42.7554C21.2198 46.7449 24.5384 50.0125 29.0665 51.5298C41.4141 55.6632 52.7606 47.3523 61.6137 39.745C61.21 40.0915 63.4423 43.5518 62.9924 43.9393C53.7381 51.892 40.9595 61.0024 28.2932 54.8473C23.4642 52.501 20.0443 47.7587 18.0462 42.8856C16.3305 38.6997 14.2856 33.4355 15.6768 28.9115C17.034 24.4994 23.4605 20.1954 27.9089 23.0325C29.6923 24.1686 30.3533 26.1668 30.9875 28.0662C31.7042 30.2072 32.5064 32.3367 32.404 34.633C32.1725 39.8453 27.974 41.6093 23.2967 41.32C18.0378 40.9966 12.4843 38.6383 8.92735 34.6934C5.14731 30.4997 3.03102 25.6145 1.34996 20.3077C-0.78944 13.5557 -0.161542 6.76154 1.6702 0C1.35362 1.16709 3.37594 2.9894 3.04991 4.19376Z" fill="#929ED3"/>
</svg>
